<svg width="49" height="49" viewBox="0 0 49 49" fill="none" xmlns="http://www.w3.org/2000/svg">
<rect width="49" height="49" fill="#d45422"/>
<path d="M20.4167 38.8386C19.9396 38.8395 19.4773 38.6774 19.11 38.3806C18.9033 38.2134 18.7324 38.008 18.6071 37.7763C18.4818 37.5446 18.4047 37.2911 18.38 37.0302C18.3554 36.7694 18.3837 36.5064 18.4634 36.2562C18.5431 36.0061 18.6727 35.7738 18.8446 35.5725L27.9912 24.898L19.1712 14.2036C19.0017 13.9999 18.875 13.7655 18.7986 13.5139C18.7222 13.2623 18.6975 12.9984 18.7259 12.7374C18.7544 12.4765 18.8354 12.2236 18.9644 11.9933C19.0934 11.763 19.2678 11.5599 19.4775 11.3955C19.6887 11.2142 19.9361 11.0775 20.2041 10.9939C20.4721 10.9102 20.7549 10.8815 21.0348 10.9096C21.3147 10.9376 21.5857 11.0218 21.8306 11.1569C22.0756 11.2919 22.2893 11.4748 22.4583 11.6943L32.3196 23.6433C32.6199 23.9997 32.784 24.4467 32.784 24.908C32.784 25.3692 32.6199 25.8162 32.3196 26.1726L22.1112 38.1217C21.9064 38.3627 21.6463 38.5532 21.3518 38.6777C21.0574 38.8023 20.737 38.8574 20.4167 38.8386Z" fill="#f8f8f8"/>
</svg>
