<svg width="35" height="35" viewBox="0 0 35 35" fill="none" xmlns="http://www.w3.org/2000/svg">
<path d="M17.4999 20.4167C19.1107 20.4167 20.4166 19.1109 20.4166 17.5C20.4166 15.8892 19.1107 14.5834 17.4999 14.5834C15.8891 14.5834 14.5833 15.8892 14.5833 17.5C14.5833 19.1109 15.8891 20.4167 17.4999 20.4167Z" fill="#d45422"/>
<path d="M27.7083 20.4167C29.3191 20.4167 30.625 19.1109 30.625 17.5C30.625 15.8892 29.3191 14.5834 27.7083 14.5834C26.0975 14.5834 24.7916 15.8892 24.7916 17.5C24.7916 19.1109 26.0975 20.4167 27.7083 20.4167Z" fill="#d45422"/>
<path d="M7.29167 20.4167C8.9025 20.4167 10.2083 19.1109 10.2083 17.5C10.2083 15.8892 8.9025 14.5834 7.29167 14.5834C5.68084 14.5834 4.375 15.8892 4.375 17.5C4.375 19.1109 5.68084 20.4167 7.29167 20.4167Z" fill="#d45422"/>
</svg>
